<svg width="72" height="73" viewBox="0 0 72 73" fill="none" xmlns="http://www.w3.org/2000/svg">
<g clip-path="url(#clip0_68_9849)">
<path d="M50.1943 3.49604H46.0408L50.3603 8.18336V10.4148H41.4638V7.80198H45.7826L41.4638 3.11467V0.880981H50.1943V3.49604ZM39.6998 3.49604H35.5463L39.8657 8.18336V10.4148H30.9686V7.80198H35.2881L30.9686 3.11467V0.880981H39.6998V3.49604ZM29.3081 3.60292H24.8261V7.69286H29.3081V10.4148H21.6401V0.880981H29.3081V3.60292Z" fill="#131313"/>
<path d="M15.5321 65.8492L10.9775 14.7668H61.0215L56.463 65.8407L35.9689 71.5231L15.5321 65.8492Z" fill="#1572B6"/>
<path d="M36.0005 67.1801L52.5599 62.589L56.4558 18.9441H36.0005V67.1801Z" fill="#33A9DC"/>
<path d="M36 37.4508H44.2901L44.8633 31.0355H36V24.7704H51.7101L51.5599 26.4511L50.0203 43.7154H36V37.4508Z" fill="white"/>
<path d="M36.0375 53.7217L36.0099 53.7296L29.0327 51.8452L28.586 46.8485H22.2979L23.1759 56.6855L36.0088 60.2478L36.038 60.2394L36.0375 53.7217Z" fill="#EBEBEB"/>
<path d="M43.7579 43.4503L43.003 51.8406L36.0156 53.7266V60.2449L48.8592 56.6854L48.9537 55.6268L50.0438 43.4503H43.7579Z" fill="white"/>
<path d="M36.0224 24.7704V31.0349H20.8895L20.7635 29.627L20.4783 26.4511L20.3281 24.7704H36.0224ZM36.0005 37.4514V43.7165H29.1116L28.9861 42.3086L28.7004 39.1321L28.5502 37.4514H36.0005Z" fill="#EBEBEB"/>
</g>
<defs>
<clipPath id="clip0_68_9849">
<rect width="72" height="72" fill="white" transform="translate(0 0.202026)"/>
</clipPath>
</defs>
</svg>
