<svg width="52" height="73" viewBox="0 0 52 73" fill="none" xmlns="http://www.w3.org/2000/svg">
<path d="M33.3156 0.202026L41.6247 4.98026L8.90235 23.7977L0.593262 19.0194L33.3156 0.202026Z" fill="#172B4D"/>
<path d="M41.9598 5.98352L9.4435 24.6739L9.44238 34.1303L41.9588 15.44L41.9598 5.98352Z" fill="#172B4D"/>
<path d="M28.8844 24.4384L9.51226 35.5736L9.51123 45.0303L28.8833 33.8949L28.8844 24.4384Z" fill="#172B4D"/>
<path d="M21.4588 39.3878L9.46693 46.281L9.46582 55.7379L21.4577 48.8447L21.4588 39.3878Z" fill="#172B4D"/>
<path d="M0.00322142 19.931L8.36119 24.735L8.35797 34.1937L0 29.3898L0.00322142 19.931Z" fill="#172B4D"/>
<path d="M0.0828112 30.7656L8.33939 35.5114L8.33617 44.97L0.0795898 40.2243L0.0828112 30.7656Z" fill="#172B4D"/>
<path d="M0.0791174 41.5345L8.33848 46.2819L8.33504 56.3645L0.0756836 51.6171L0.0791174 41.5345Z" fill="#172B4D"/>
<path d="M18.4839 72.202L10.1748 67.4238L42.5258 48.8199L50.8348 53.5982L18.4839 72.202Z" fill="#172B4D"/>
<path d="M9.51611 66.6058L41.9837 47.9435L41.9847 38.4871L9.51714 57.1494L9.51611 66.6058Z" fill="#172B4D"/>
<path d="M22.543 48.1794L41.915 37.044L41.9162 27.5874L22.544 38.7227L22.543 48.1794Z" fill="#172B4D"/>
<path d="M29.9692 33.2294L41.9611 26.3361L41.9621 16.8794L29.9703 23.7726L29.9692 33.2294Z" fill="#172B4D"/>
<path d="M51.4253 52.7497L43.0674 47.9458L43.0706 38.4871L51.4285 43.291L51.4253 52.7497Z" fill="#172B4D"/>
<path d="M51.3459 41.8544L43.0894 37.1087L43.0925 27.65L51.3491 32.3957L51.3459 41.8544Z" fill="#172B4D"/>
<path d="M51.3488 31.0856L43.0894 26.3382L43.0927 16.4369L51.3521 21.1842L51.3488 31.0856Z" fill="#172B4D"/>
</svg>
