<svg width="72" height="73" viewBox="0 0 72 73" fill="none" xmlns="http://www.w3.org/2000/svg">
<path d="M15.6677 65.6513L11.1436 14.9076H60.8562L56.3275 65.6434L35.9695 71.287L15.6677 65.6513Z" fill="#E44D26"/>
<path d="M36 66.973L52.4498 62.4123L56.3203 19.057H36V66.973Z" fill="#F16529"/>
<path d="M36 37.8771H27.7644L27.1963 31.5034H36V25.2799H20.3945L20.543 26.95L22.073 44.1H36V37.8771ZM36 54.0394L35.9724 54.0467L29.0418 52.1747L28.5986 47.2118H22.3509L23.2228 56.9835L35.9713 60.5228L36 60.5143V54.0394Z" fill="#EBEBEB"/>
<path d="M15.769 1.11707H18.9314V4.24232H21.8249V1.11707H24.9879V10.5794H21.8249V7.41088H18.932V10.5794H15.769V1.11707ZM29.1464 4.25525H26.362V1.11707H35.0949V4.25525H32.3094V10.5794H29.1464V4.25525ZM36.4809 1.11707H39.7782L41.8072 4.442L43.8339 1.11707H47.1329V10.5794H43.9824V5.88932L41.8072 9.25363H41.752L39.5752 5.88932V10.5794H36.4803V1.11707H36.4809ZM48.7074 1.11707H51.8709V7.45194H56.3185V10.58H48.7074V1.11707Z" fill="black"/>
<path d="M35.9785 37.8771V44.1H43.642L42.9198 52.1713L35.9785 54.045V60.5194L48.7371 56.9835L48.8305 55.9317L50.293 39.5477L50.4449 37.8771H48.7675H35.9785ZM35.9785 25.2799V31.5034H51.0113L51.1356 30.1045L51.4197 26.95L51.5688 25.2799H35.9785Z" fill="white"/>
</svg>
