<svg width="72" height="73" viewBox="0 0 72 73" fill="none" xmlns="http://www.w3.org/2000/svg">
<g clip-path="url(#clip0_68_9826)">
<path d="M0.791992 0.994019H71.208V71.4106H0.791992V0.994019Z" fill="#F0DB4F"/>
<path d="M65.4451 54.6161C64.9293 51.4037 62.8346 48.7054 56.6296 46.1893C54.4741 45.1988 52.0711 44.4895 51.3551 42.856C51.1008 41.9053 51.0671 41.3698 51.2279 40.7944C51.6898 38.9269 53.9189 38.3447 55.6858 38.8802C56.8237 39.2616 57.9009 40.1385 58.5506 41.5375C61.5892 39.5698 61.583 39.5828 63.7048 38.2305C62.9279 37.0262 62.5134 36.4705 62.0049 35.9552C60.1773 33.9139 57.6871 32.8626 53.7046 32.943L51.6301 33.2113C49.6423 33.7136 47.7478 34.7571 46.6368 36.156C43.3034 39.9383 44.2541 46.5578 48.3103 49.2819C52.3063 52.2812 58.1765 52.9635 58.9263 55.7681C59.6559 59.2016 56.4029 60.3131 53.1697 59.9183C50.7869 59.4227 49.4617 58.2116 48.029 56.0094C45.392 57.5355 45.392 57.5355 42.6808 59.0948C43.3237 60.5005 43.9993 61.1366 45.077 62.3544C50.1778 67.5283 62.942 67.2741 65.2314 59.443C65.3242 59.1741 65.9407 57.3808 65.4451 54.6161ZM39.0723 33.3576H32.486L32.459 50.3856C32.459 54.0069 32.6463 57.3268 32.0574 58.3444C31.0938 60.3458 28.5969 60.0977 27.4589 59.7096C26.3008 59.1403 25.7118 58.3309 25.0295 57.1868C24.8422 56.8583 24.7016 56.604 24.6543 56.5843L19.2993 59.8637C20.1898 61.6913 21.5015 63.2775 23.1817 64.308C25.6916 65.8144 29.0649 66.2762 32.5929 65.4662C34.889 64.7974 36.8701 63.412 37.9074 61.3031C39.407 58.5385 39.0853 55.1921 39.0718 51.4909C39.1055 45.4525 39.0723 39.4151 39.0723 33.3576Z" fill="#323330"/>
</g>
<defs>
<clipPath id="clip0_68_9826">
<rect width="72" height="72" fill="white" transform="translate(0 0.202026)"/>
</clipPath>
</defs>
</svg>
