<svg width="72" height="15" viewBox="0 0 72 15" fill="none" xmlns="http://www.w3.org/2000/svg">
<g clip-path="url(#clip0_68_9866)">
<path d="M47.8633 0.207886H60.4044V2.52265H55.4295V14.7003H52.9418V2.52265H47.8633V0.207886Z" fill="black"/>
<path d="M27.2379 0.207886V2.52265H17.1853V6.24641H25.2696V8.56117H17.1853V12.3856H27.2379V14.7003H14.6978V2.52265H14.6968V0.207886H27.2379Z" fill="black"/>
<path d="M33.5 0.213989H30.2446L41.9046 14.7064H45.1695L39.3387 7.4652L45.1601 0.225046L41.9046 0.230077L37.7089 5.44103L33.5 0.213989Z" fill="black"/>
<path d="M36.8405 10.566L35.2103 8.53906L30.2354 14.7175H33.5L36.8405 10.566Z" fill="black"/>
<path fill-rule="evenodd" clip-rule="evenodd" d="M14.785 14.7004L3.10936 0.201904H0V14.6944H2.48749V3.29966L11.6601 14.7004H14.785Z" fill="black"/>
<path d="M60.9639 14.6118C60.7817 14.6118 60.6267 14.5487 60.497 14.4225C60.3672 14.2963 60.3031 14.1435 60.3047 13.9625C60.3031 13.7864 60.3672 13.6353 60.497 13.509C60.6267 13.3828 60.7817 13.3197 60.9639 13.3197C61.1391 13.3197 61.2924 13.3828 61.4222 13.509C61.5538 13.6353 61.6194 13.7864 61.6212 13.9625C61.6194 14.082 61.589 14.1916 61.5284 14.2896C61.466 14.3893 61.3869 14.4674 61.2873 14.5238C61.1896 14.582 61.0817 14.6118 60.9639 14.6118Z" fill="black"/>
<path d="M65.2091 8.50659H66.3114V12.7534C66.3098 13.1437 66.2253 13.4775 66.0603 13.7582C65.8935 14.0389 65.6625 14.2531 65.3659 14.4042C65.071 14.5537 64.7254 14.6301 64.3327 14.6301C63.9736 14.6301 63.6518 14.5653 63.3653 14.4391C63.0787 14.3129 62.8512 14.1236 62.6844 13.8744C62.5157 13.6253 62.4331 13.3147 62.4331 12.9427H63.5372C63.5389 13.1055 63.576 13.2466 63.6467 13.3645C63.7174 13.4825 63.8152 13.5721 63.94 13.6353C64.0663 13.6984 64.2114 13.7299 64.3747 13.7299C64.5518 13.7299 64.7035 13.6934 64.8265 13.6186C64.9495 13.5456 65.0439 13.436 65.1097 13.2898C65.1737 13.1453 65.2075 12.966 65.2091 12.7534V8.50659Z" fill="black"/>
<path d="M70.8471 10.1674C70.8202 9.90996 70.7022 9.709 70.4966 9.56617C70.2892 9.42168 70.0213 9.35026 69.6925 9.35026C69.4617 9.35026 69.2629 9.38515 69.0977 9.45324C68.9325 9.52299 68.8044 9.61599 68.7167 9.73391C68.6292 9.85183 68.5853 9.98636 68.5819 10.1375C68.5819 10.2637 68.6122 10.3733 68.6712 10.4647C68.7302 10.5577 68.8094 10.6358 68.9122 10.6989C69.0133 10.7636 69.1262 10.8168 69.2494 10.86C69.374 10.9031 69.4988 10.9397 69.6235 10.9696L70.1982 11.1108C70.4292 11.1639 70.6534 11.2353 70.8674 11.3267C71.0814 11.4164 71.2753 11.5309 71.4454 11.6688C71.6157 11.8066 71.7506 11.9727 71.85 12.1671C71.9494 12.3614 72 12.5889 72 12.8513C72 13.2051 71.909 13.5156 71.7252 13.7847C71.5415 14.0521 71.2769 14.2614 70.9297 14.4125C70.5841 14.562 70.1662 14.6384 69.6741 14.6384C69.1988 14.6384 68.7841 14.5653 68.4353 14.4192C68.0848 14.2747 67.8116 14.0621 67.6144 13.783C67.4172 13.504 67.3111 13.1635 67.2959 12.7633H68.3881C68.4033 12.9725 68.4707 13.1469 68.5853 13.2881C68.7015 13.4276 68.8532 13.5306 69.0387 13.6003C69.2258 13.6684 69.4347 13.7033 69.6657 13.7033C69.9067 13.7033 70.1191 13.6668 70.3027 13.5954C70.4847 13.5239 70.628 13.4243 70.7309 13.2948C70.8354 13.1669 70.8877 13.0157 70.8893 12.843C70.8877 12.6852 70.8403 12.554 70.7493 12.451C70.6567 12.3481 70.5286 12.2617 70.365 12.192C70.2 12.1222 70.0078 12.0591 69.7887 12.0043L69.091 11.8282C68.587 11.7003 68.1875 11.506 67.8958 11.2453C67.6027 10.9845 67.4576 10.6391 67.4576 10.2056C67.4576 9.85019 67.5554 9.53795 67.7528 9.27055C67.9481 9.00316 68.2162 8.79555 68.555 8.64773C68.8954 8.49827 69.2797 8.42517 69.7077 8.42517C70.1426 8.42517 70.5235 8.49827 70.8522 8.64773C71.1808 8.79555 71.4388 9.0015 71.6258 9.2639C71.8129 9.52631 71.9107 9.82692 71.9158 10.1674H70.8471Z" fill="black"/>
</g>
<defs>
<clipPath id="clip0_68_9866">
<rect width="72" height="14.6193" fill="white" transform="translate(0 0.201904)"/>
</clipPath>
</defs>
</svg>
