<svg width="60" height="73" viewBox="0 0 60 73" fill="none" xmlns="http://www.w3.org/2000/svg">
<path d="M30 32.2177C32.9783 32.2177 35.3926 29.8033 35.3926 26.8251C35.3926 23.8468 32.9783 21.4325 30 21.4325C27.0218 21.4325 24.6074 23.8468 24.6074 26.8251C24.6074 29.8033 27.0218 32.2177 30 32.2177Z" fill="#61DAFB"/>
<path d="M30.0002 46.656C34.233 50.7729 38.408 53.2083 41.7711 53.2083C42.8728 53.2083 43.9165 52.9763 44.7863 52.4545C47.8015 50.7149 48.9032 46.3661 47.8595 40.1617C47.6855 39.06 47.4536 37.9582 47.1637 36.7985C48.3234 36.4506 49.3671 36.1027 50.4108 35.7548C56.2673 33.4934 59.5145 30.3622 59.5145 26.9411C59.5145 23.462 56.2673 20.3308 50.4108 18.1274C49.3671 17.7215 48.3234 17.3736 47.1637 17.0837C47.4536 15.924 47.6855 14.8223 47.8595 13.7206C48.8452 7.4002 47.7435 2.99335 44.7283 1.2538C43.8585 0.73194 42.8148 0.5 41.7131 0.5C38.408 0.5 34.1751 2.93537 29.9422 7.05229C25.7673 2.93537 21.5923 0.5 18.2292 0.5C17.1275 0.5 16.0838 0.73194 15.214 1.2538C12.1988 2.99335 11.0971 7.34222 12.1408 13.5466C12.3148 14.6483 12.5467 15.75 12.8366 16.9097C11.6769 17.2576 10.6332 17.6055 9.58947 17.9535C3.73299 20.2149 0.48584 23.3461 0.48584 26.7672C0.48584 30.2463 3.73299 33.3774 9.58947 35.5809C10.6332 35.9868 11.6769 36.3347 12.8366 36.6246C12.5467 37.7843 12.3148 38.886 12.1408 39.9877C11.1551 46.1921 12.2568 50.599 15.214 52.2805C16.0838 52.8024 17.1275 53.0343 18.2292 53.0343C21.5923 53.1503 25.7673 50.7149 30.0002 46.656ZM26.753 38.828C27.7967 38.886 28.8984 38.886 30.0002 38.886C31.1019 38.886 32.2036 38.886 33.2473 38.828C32.2036 40.2197 31.1019 41.4953 30.0002 42.713C28.8984 41.4953 27.7967 40.2197 26.753 38.828ZM19.5629 32.8556C20.1427 33.8413 20.6646 34.7691 21.3024 35.6968C19.5049 35.4649 17.8233 35.175 16.1997 34.8271C16.7216 33.2615 17.3015 31.6379 17.9973 30.0143C18.4612 30.9421 18.983 31.9278 19.5629 32.8556ZM16.1997 18.8812C17.8233 18.5333 19.5049 18.2434 21.3024 18.0114C20.7226 18.9392 20.1427 19.867 19.5629 20.8527C18.983 21.8384 18.4612 22.7662 17.9973 23.7519C17.2435 22.0704 16.6636 20.4468 16.1997 18.8812ZM19.3889 26.8251C20.1427 25.2596 20.9545 23.694 21.8823 22.1284C22.752 20.6208 23.7378 19.1132 24.7235 17.6055C26.4631 17.4896 28.2026 17.4316 30.0002 17.4316C31.8557 17.4316 33.5952 17.4896 35.2768 17.6055C36.3205 19.1132 37.2483 20.6208 38.118 22.1284C39.0458 23.694 39.8576 25.2596 40.6114 26.8251C39.8576 28.3907 39.0458 29.9563 38.118 31.5219C37.2483 33.0295 36.2625 34.5371 35.2768 36.0447C33.5372 36.1607 31.7977 36.2187 30.0002 36.2187C28.1446 36.2187 26.4051 36.1607 24.7235 36.0447C23.6798 34.5371 22.752 33.0295 21.8823 31.5219C20.9545 29.9563 20.1427 28.3907 19.3889 26.8251ZM42.061 23.694L40.4954 20.7947C39.9156 19.809 39.3937 18.8812 38.7559 17.9535C40.5534 18.1854 42.235 18.4753 43.8585 18.8232C43.3367 20.4468 42.7568 22.0704 42.061 23.694ZM42.061 29.9563C42.7568 31.5799 43.3367 33.2035 43.8585 34.7691C42.235 35.117 40.5534 35.4069 38.7559 35.6388C39.3357 34.7111 39.9156 33.7833 40.4954 32.7976C41.0173 31.9278 41.5391 30.9421 42.061 29.9563ZM43.3947 50.0771C42.9308 50.367 42.3509 50.483 41.7131 50.483C38.8718 50.483 35.3348 48.1636 31.8557 44.6845C33.5372 42.887 35.1608 40.8575 36.7844 38.5961C39.5097 38.3641 42.119 37.9582 44.5544 37.3784C44.8443 38.4221 45.0182 39.4658 45.1922 40.5096C46.004 45.4383 45.3661 48.9754 43.3947 50.0771ZM46.4099 19.519C52.9042 21.3746 56.7892 24.2158 56.7892 26.8251C56.7892 29.0866 54.1219 31.348 49.4251 33.1455C48.4973 33.4934 47.4536 33.8413 46.4099 34.1312C45.6561 31.7539 44.7283 29.3185 43.5686 26.8251C44.7283 24.3318 45.7141 21.8964 46.4099 19.519ZM41.7711 3.16731C42.4089 3.16731 42.9308 3.28328 43.4526 3.5732C45.3661 4.67491 46.062 8.15401 45.2502 13.1407C45.0762 14.1264 44.8443 15.1702 44.6123 16.2719C42.177 15.75 39.5677 15.3441 36.8424 15.0542C35.2768 12.7928 33.5952 10.7633 31.9137 8.96579C35.3927 5.54469 38.9298 3.16731 41.7711 3.16731ZM33.2473 14.8223C32.2036 14.7643 31.1019 14.7643 30.0002 14.7643C28.8984 14.7643 27.7967 14.7643 26.753 14.8223C27.7967 13.4306 28.8984 12.155 30.0002 10.9373C31.1019 12.155 32.2036 13.4886 33.2473 14.8223ZM16.6056 3.5732C17.0695 3.28328 17.6494 3.16731 18.2872 3.16731C21.1285 3.16731 24.6655 5.4867 28.1446 8.96579C26.4631 10.7633 24.8395 12.7928 23.2159 15.0542C20.4906 15.2861 17.8813 15.692 15.4459 16.2719C15.156 15.2282 14.9821 14.1844 14.8081 13.1407C13.9963 8.21199 14.6342 4.7329 16.6056 3.5732ZM13.5904 34.1312C7.09612 32.2757 3.21113 29.4345 3.21113 26.8251C3.21113 24.5637 5.87843 22.3023 10.5752 20.5048C11.503 20.1569 12.5467 19.809 13.5904 19.519C14.3442 21.8964 15.272 24.3318 16.4317 26.8251C15.272 29.3185 14.2862 31.8118 13.5904 34.1312ZM14.8081 40.5096C14.9821 39.5238 15.214 38.4801 15.4459 37.3784C17.8813 37.9003 20.4906 38.3062 23.2159 38.5961C24.7815 40.8575 26.4631 42.887 28.1446 44.6845C24.6655 48.1056 21.1285 50.483 18.2872 50.483C17.6494 50.483 17.1275 50.367 16.6056 50.0771C14.6342 48.9754 13.9963 45.4383 14.8081 40.5096ZM12.3727 64.3994C13.6484 62.8338 13.7064 61.0942 13.0106 59.3547C12.3148 57.6151 10.8651 56.8033 9.0676 56.7453C6.92216 56.6874 4.71874 56.7453 2.5733 56.7453H2.1674V71.7634H3.90695V66.0809H6.63224C6.98015 66.0809 7.27007 66.1969 7.44403 66.4868L10.9231 71.8794C10.9811 71.9954 11.1551 72.1693 11.271 72.1693H13.5324C12.1408 70.0239 10.8072 67.9944 9.41551 65.907C10.6332 65.733 11.6769 65.3271 12.3727 64.3994ZM3.90695 64.2834V58.5429H4.54478C5.87844 58.5429 7.27007 58.4849 8.60373 58.6009C10.1693 58.6589 11.271 59.8765 11.271 61.4421C11.271 63.0077 9.99536 64.2254 8.42977 64.2834C7.03813 64.3414 5.6465 64.2834 3.90695 64.2834ZM26.3471 65.0372C25.4193 60.9782 21.7083 59.9345 18.8671 61.2102C16.6636 62.1959 15.6779 64.1094 15.6199 66.4868C15.5619 68.2843 16.0838 69.9079 17.4754 71.1256C19.041 72.5172 20.9545 72.6912 22.926 72.3433C24.0277 72.1113 25.0134 71.5895 25.7673 70.7777C25.4773 70.3718 25.1874 69.9659 24.8975 69.618C23.2739 71.0096 21.4764 71.4735 19.5049 70.5458C18.2292 69.9079 17.5914 68.3423 17.4754 67.1826H26.4631V66.4288C26.5211 65.907 26.4631 65.4431 26.3471 65.0372ZM17.5914 65.9649C17.4174 64.2254 19.157 62.3699 21.0705 62.3699C23.2739 62.3119 24.6655 63.6456 24.7235 65.9649H17.5914ZM35.3927 60.9203C34.523 60.7463 33.5952 60.6883 32.7254 60.7463C31.3338 60.8623 30.1161 61.5001 29.1304 62.5438C29.4203 62.9497 29.6522 63.3556 30.0002 63.8195C30.1161 63.7035 30.2321 63.5876 30.3481 63.5296C31.2758 62.6598 32.3775 62.1959 33.7112 62.3119C34.7549 62.3699 35.7407 62.7178 36.0306 63.7615C36.2625 64.5733 36.2045 65.4431 36.2625 66.3129C36.0886 66.3129 36.0306 66.2549 35.9726 66.1969C34.581 65.0372 33.0154 64.8052 31.3338 65.2111C29.7682 65.617 28.7825 66.8347 28.6665 68.4003C28.5505 70.1978 29.3623 71.5315 30.9279 72.1693C31.9137 72.5752 33.0154 72.5752 34.0591 72.3433C34.8709 72.1693 35.2188 71.7055 36.3785 71.0676V71.8214H38.0021C38.0021 69.502 38.0601 66.6608 38.0021 63.9935C38.0021 62.3119 37.0163 61.2682 35.3927 60.9203ZM36.2045 68.2264C36.1465 68.4003 36.2045 68.5743 36.2045 68.7482C36.2045 69.9659 35.9146 70.3718 34.7549 70.8357C33.9431 71.1256 33.0734 71.2416 32.2036 70.9516C31.2178 70.6617 30.522 69.792 30.522 68.8062C30.464 67.8205 31.1019 66.8347 32.0876 66.5448C33.4213 66.0809 34.6389 66.3708 35.7407 67.1826C36.0886 67.4726 36.3205 67.7625 36.2045 68.2264ZM45.2502 62.4859C46.7578 62.022 48.1494 62.3119 49.1932 63.5876L49.3671 63.7035C49.773 63.3556 50.1209 63.0077 50.5848 62.6018C50.4108 62.4279 50.3529 62.3119 50.2369 62.1379C48.5553 60.3404 45.2502 60.1085 43.2207 61.5581C40.3794 63.6456 40.4374 67.7045 41.8291 69.8499C43.1627 71.8794 45.0762 72.5752 47.3376 72.2853C48.6713 72.1113 49.773 71.4735 50.6428 70.3718C50.2369 70.0239 49.831 69.676 49.4251 69.2701C49.3091 69.3861 49.2511 69.444 49.1932 69.56C47.6276 71.2996 45.0182 71.1256 43.6266 69.2701C42.8148 68.1684 42.6409 66.8927 42.8728 65.617C42.9888 64.1674 43.7426 63.0077 45.2502 62.4859ZM57.311 70.3718C57.1951 70.4298 57.1371 70.4878 57.1371 70.4878C56.6732 70.8357 56.2093 70.8937 55.6875 70.7197C55.1656 70.4878 55.1076 70.0239 55.0496 69.56V62.9497C55.0496 62.8338 55.0496 63.0657 55.1076 62.4859H57.311V60.7463H54.9916V57.8471H53.2521V60.9782H51.7445C51.6285 60.9782 51.4546 61.0942 51.4546 61.2102C51.3966 61.6161 51.4546 61.906 51.4546 62.4859H53.3101V69.9079C53.3101 70.8357 53.542 71.6475 54.3538 72.1113C55.2236 72.6332 56.9051 72.5172 57.6589 71.8794C57.7749 71.8214 57.8329 71.5895 57.8329 71.5315C57.6589 71.1836 57.485 70.7777 57.311 70.3718Z" fill="#61DAFB"/>
</svg>
